HIERARCHY
ROOT Hips
{
	OFFSET -0.001795 -0.223333 0.028219
	CHANNELS 6 Xposition Yposition Zposition Zrotation Yrotation Xrotation 
	JOINT LeftUpLeg
	{
		OFFSET 0.069520 -0.091406 -0.006815
		CHANNELS 3 Zrotation Yrotation Xrotation
		JOINT LeftLeg
		{
			OFFSET 0.034277 -0.375199 -0.004496
			CHANNELS 3 Zrotation Yrotation Xrotation
			JOINT LeftFoot
			{
				OFFSET -0.013596 -0.397961 -0.043693
				CHANNELS 3 Zrotation Yrotation Xrotation
				JOINT LeftToe
				{
					OFFSET 0.026358 -0.055791 0.119288
					CHANNELS 3 Zrotation Yrotation Xrotation
					End Site
					{
						OFFSET 0.000000 0.000000 0.000000
					}
				}
			}
		}
	}
	JOINT RightUpLeg
	{
		OFFSET -0.067670 -0.090522 -0.004320
		CHANNELS 3 Zrotation Yrotation Xrotation
		JOINT RightLeg
		{
			OFFSET -0.038290 -0.382569 -0.008850
			CHANNELS 3 Zrotation Yrotation Xrotation
			JOINT RightFoot
			{
				OFFSET 0.015774 -0.398415 -0.042312
				CHANNELS 3 Zrotation Yrotation Xrotation
				JOINT RightToe
				{
					OFFSET -0.025372 -0.048144 0.123348
					CHANNELS 3 Zrotation Yrotation Xrotation
					End Site
					{
						OFFSET 0.000000 0.000000 0.000000
					}
				}
			}
		}
	}
	JOINT Spine
	{
		OFFSET -0.002533 0.108963 -0.026696
		CHANNELS 3 Zrotation Yrotation Xrotation
		JOINT Spine1
		{
			OFFSET 0.005487 0.135180 0.001092
			CHANNELS 3 Zrotation Yrotation Xrotation
			JOINT Spine2
			{
				OFFSET 0.001457 0.052922 0.025425
				CHANNELS 3 Zrotation Yrotation Xrotation
				JOINT Neck
				{
					OFFSET -0.002778 0.213870 -0.042857
					CHANNELS 3 Zrotation Yrotation Xrotation
					JOINT Head
					{
						OFFSET 0.005152 0.064970 0.051349
						CHANNELS 3 Zrotation Yrotation Xrotation
						End Site
						{
							OFFSET 0.000000 0.000000 0.000000
						}
					}
				}
				JOINT LeftShoulder
				{
					OFFSET 0.078845 0.121749 -0.034090
					CHANNELS 3 Zrotation Yrotation Xrotation
					JOINT LeftArm
					{
						OFFSET 0.090977 0.030469 -0.008868
						CHANNELS 3 Zrotation Yrotation Xrotation
						JOINT LeftForeArm
						{
							OFFSET 0.259612 -0.012772 -0.027456
							CHANNELS 3 Zrotation Yrotation Xrotation
							JOINT LeftHand
							{
								OFFSET 0.249234 0.008986 -0.001171
								CHANNELS 3 Zrotation Yrotation Xrotation
								End Site
								{
									OFFSET 0.000000 0.000000 0.000000
								}
							}
						}
					}
				}
				JOINT RightShoulder
				{
					OFFSET -0.081759 0.118833 -0.038615
					CHANNELS 3 Zrotation Yrotation Xrotation
					JOINT RightArm
					{
						OFFSET -0.096012 0.032551 -0.009143
						CHANNELS 3 Zrotation Yrotation Xrotation
						JOINT RightForeArm
						{
							OFFSET -0.253742 -0.013329 -0.021401
							CHANNELS 3 Zrotation Yrotation Xrotation
							JOINT RightHand
							{
								OFFSET -0.255298 0.007772 -0.005559
								CHANNELS 3 Zrotation Yrotation Xrotation
								End Site
								{
									OFFSET 0.000000 0.000000 0.000000
								}
							}
						}
					}
				}
			}
		}
	}
}
MOTION
Frames: 13
Frame Time: 0.050000
-0.934944 0.920036 0.985315 -160.640159 71.770680 -164.080283 -3.119301 -0.385678 -6.893897 -7.081784 -6.963819 24.335949 -37.240978 -21.081796 129.949162 0.000000 0.000000 0.000000 -1.042260 -2.352812 1.715729 -43.114879 -19.174452 61.279788 38.289054 23.931546 43.972060 0.000000 0.000000 0.000000 4.377467 -3.612057 16.487134 -5.882633 1.951465 -21.437390 9.024584 13.971043 33.578164 8.881159 6.391198 -22.064153 0.000000 0.000000 0.000000 -6.471032 -3.530257 -23.402396 -53.803517 25.619071 -21.912739 -86.654839 -37.539809 16.939000 0.000000 0.000000 0.000000 1.776868 -14.331463 -2.277006 71.799715 -12.754458 7.884667 60.317880 72.645537 69.235193 0.000000 0.000000 0.000000 
-0.887104 0.912600 0.955025 -164.038267 66.043687 -168.497217 -3.113379 -0.373965 -2.766930 -7.127381 -8.187437 26.508401 -24.778832 -21.668777 121.604236 0.000000 0.000000 0.000000 2.042618 -1.535759 -5.422653 -62.940651 -17.007098 73.495427 68.212896 50.290779 43.575036 0.000000 0.000000 0.000000 4.160753 -4.374490 17.913155 -4.591800 1.903546 -21.513069 7.881410 11.469856 33.717772 8.515720 7.305364 -24.384714 0.000000 0.000000 0.000000 -8.123191 -5.896623 -26.223754 -52.865551 26.418520 -20.452645 -87.346662 -40.370817 21.383828 0.000000 0.000000 0.000000 3.522955 -15.350394 -1.117302 71.509818 -10.155165 8.653573 43.079850 72.867593 53.228594 0.000000 0.000000 0.000000 
-0.836161 0.912362 0.921480 -164.224272 59.993183 -169.540235 -2.321770 -1.563517 3.373851 -4.115781 -7.327068 24.356948 -13.543890 -22.458468 113.941811 0.000000 0.000000 0.000000 6.007885 -1.766127 -12.742166 -68.642481 -16.630388 75.916133 70.505646 67.919861 33.431375 0.000000 0.000000 0.000000 5.891605 -5.358863 18.439032 -5.717784 1.451970 -21.960391 9.100493 7.700668 33.317955 7.130505 7.768963 -24.164664 0.000000 0.000000 0.000000 -9.209635 -6.725843 -28.857089 -50.732458 27.957217 -19.231682 -90.573954 -41.394894 25.556400 0.000000 0.000000 0.000000 3.284086 -15.239973 -1.105359 70.798774 -12.020082 7.935820 35.506248 71.858923 45.268660 0.000000 0.000000 0.000000 
-0.782411 0.926406 0.882978 -163.996676 56.563568 -169.632395 -1.857445 -4.734195 11.267978 -3.059810 -4.624485 18.332519 -1.537809 -18.645375 102.140332 0.000000 0.000000 0.000000 9.562736 -3.673053 -20.443216 -59.511907 -18.608144 69.214424 61.717881 54.942649 28.630787 0.000000 0.000000 0.000000 6.427432 -6.204551 19.256659 -4.153077 1.610792 -23.048503 7.731151 3.491497 33.109511 6.090598 8.768706 -25.528780 0.000000 0.000000 0.000000 -8.406857 -5.113131 -27.486254 -53.240864 26.164038 -20.597531 -94.582883 -40.557936 26.862371 0.000000 0.000000 0.000000 3.861976 -16.051644 -1.821634 67.785464 -12.634545 6.133483 37.151543 69.391828 44.951419 0.000000 0.000000 0.000000 
-0.725290 0.948609 0.839462 -164.191911 54.729049 -169.079761 -2.435829 -7.814154 16.954618 -3.197657 -3.029108 13.733994 3.707435 -11.712038 92.344356 0.000000 0.000000 0.000000 12.645775 -4.698605 -24.228209 -35.907159 -20.296099 52.653473 24.259132 22.032389 23.200304 0.000000 0.000000 0.000000 7.243290 -5.760429 17.854717 -2.678603 1.792702 -22.397569 6.414123 -0.703700 32.014577 4.253811 9.507675 -26.889443 0.000000 0.000000 0.000000 -6.736296 -2.629386 -25.062138 -56.661127 25.005857 -23.577203 -98.009637 -38.659955 26.210725 0.000000 0.000000 0.000000 1.043588 -15.000524 -3.543874 68.305778 -17.051234 5.233718 37.410414 68.564227 44.594900 0.000000 0.000000 0.000000 
-0.665559 0.969717 0.792497 -165.013530 53.595129 -168.706994 -3.019294 -9.820564 20.075782 -3.861187 -2.551227 11.775416 3.212330 -6.457915 87.177782 0.000000 0.000000 0.000000 12.680505 -4.939418 -24.451072 -12.745307 -16.120954 32.322238 12.823747 11.910249 27.057300 0.000000 0.000000 0.000000 7.698548 -5.387927 16.816201 -2.019089 1.740207 -24.984679 5.222714 -3.974552 32.559268 2.246253 9.382533 -25.636961 0.000000 0.000000 0.000000 -5.112898 -0.636584 -23.645204 -58.079104 23.860903 -25.278324 -97.249731 -35.113107 21.090810 0.000000 0.000000 0.000000 0.918225 -13.542993 -2.715672 67.869942 -17.464785 4.514684 36.260546 67.941447 42.589179 0.000000 0.000000 0.000000 
-0.603832 0.980117 0.743511 -167.391579 52.727772 -170.961243 -1.920424 -9.198122 18.349276 -9.014602 -5.097022 19.450999 5.503698 3.252171 73.974809 0.000000 0.000000 0.000000 13.232855 -3.276931 -21.267411 -3.665364 -10.396490 18.806425 11.438655 9.062412 23.932061 0.000000 0.000000 0.000000 8.511244 -4.943767 15.467753 -1.222585 1.862071 -22.129501 3.456959 -3.686882 29.909256 1.721435 8.797909 -24.971116 0.000000 0.000000 0.000000 -5.791818 -2.558903 -22.984112 -56.666696 24.444622 -24.144107 -96.394022 -33.506385 17.915767 0.000000 0.000000 0.000000 -0.948453 -12.840052 -3.512137 69.983071 -19.862588 5.246833 35.350067 68.166244 41.293683 0.000000 0.000000 0.000000 
-0.541767 0.969721 0.694000 -168.116550 49.289871 -173.946788 2.172287 -10.017093 15.788882 -17.633733 -9.295191 30.109014 8.405525 10.184416 60.601316 0.000000 0.000000 0.000000 15.383478 -1.829183 -18.244431 -6.242935 -11.522911 20.446808 6.688281 5.420784 19.203571 0.000000 0.000000 0.000000 10.273148 -6.664707 16.653132 -5.218631 0.952539 -22.855707 7.312119 -3.183164 29.388235 2.758007 8.059091 -22.416624 0.000000 0.000000 0.000000 -5.740437 -3.828564 -25.476345 -56.708583 27.208431 -25.514198 -93.171936 -27.841240 10.094007 0.000000 0.000000 0.000000 -0.535403 -14.101825 -3.713435 69.587655 -20.745260 5.834032 39.673687 68.497777 45.100976 0.000000 0.000000 0.000000 
-0.481441 0.945966 0.646381 -169.103744 48.070752 -176.561696 6.856359 -9.308596 10.282202 -31.057882 -13.686054 42.663533 19.866760 16.901359 39.919299 0.000000 0.000000 0.000000 17.020173 -1.281178 -16.876548 -16.130064 -17.314645 31.634634 10.381757 7.644684 9.624406 0.000000 0.000000 0.000000 9.684349 -7.402910 18.215273 -3.999072 1.172653 -24.337692 7.206490 -1.159252 30.282050 3.052569 7.109660 -22.062095 0.000000 0.000000 0.000000 -6.536237 -5.683145 -28.096391 -54.350523 30.979068 -25.182522 -90.801135 -25.296059 7.583244 0.000000 0.000000 0.000000 1.561698 -14.989917 -1.743934 68.876205 -17.164940 6.915818 37.558697 69.258655 43.839826 0.000000 0.000000 0.000000 
-0.424559 0.923927 0.602356 -169.324920 48.330850 -177.809970 9.673092 -6.827235 1.862680 -45.861902 -15.819521 54.133801 45.168559 33.259794 8.400625 0.000000 0.000000 0.000000 17.398445 -0.421896 -14.117610 -23.787894 -20.416330 38.530969 17.006247 13.523476 6.299061 0.000000 0.000000 0.000000 8.873439 -7.815124 19.481693 -4.836253 0.928102 -24.651003 9.627829 1.362014 30.161421 3.370476 6.342182 -20.782161 0.000000 0.000000 0.000000 -6.860066 -6.560659 -30.695111 -54.397263 33.742266 -25.891968 -83.408340 -22.212640 3.498486 0.000000 0.000000 0.000000 2.823011 -15.216018 -0.110432 67.963724 -10.984522 8.884625 33.371623 69.705317 41.477390 0.000000 0.000000 0.000000 
-0.369437 0.915801 0.560685 -170.413538 48.940793 -178.903161 9.381893 -4.643940 -7.219380 -50.616885 -16.843015 59.710551 43.594669 42.762044 -9.355494 0.000000 0.000000 0.000000 16.902790 0.467030 -9.891797 -25.654846 -21.558221 40.080184 18.881540 14.572020 5.270133 0.000000 0.000000 0.000000 6.987039 -7.092494 19.817283 -3.362382 1.314934 -24.731915 9.180143 4.002621 30.540196 5.635773 4.664451 -19.678633 0.000000 0.000000 0.000000 -5.595901 -6.984635 -31.426907 -54.375411 35.580116 -27.371994 -79.868399 -19.386129 0.225524 0.000000 0.000000 0.000000 4.121018 -16.509743 1.280770 67.589884 -3.792602 12.166579 29.723200 72.792151 42.725756 0.000000 0.000000 0.000000 
-0.313519 0.916647 0.518077 -171.406132 51.512463 -179.540252 7.660365 -4.057962 -14.222495 -41.701390 -17.756654 54.684686 40.373610 36.756572 -10.369327 0.000000 0.000000 0.000000 15.514725 0.784534 -2.961802 -21.406139 -20.258188 36.364456 20.106321 13.793968 2.715653 0.000000 0.000000 0.000000 5.682244 -6.104413 19.335704 -5.295545 0.848982 -24.931520 11.958381 7.237296 31.516792 6.355567 3.900316 -19.014381 0.000000 0.000000 0.000000 -4.392514 -6.801697 -32.077822 -52.937553 37.765018 -28.273371 -77.728305 -14.843436 -3.852179 0.000000 0.000000 0.000000 4.361834 -16.161452 2.694862 67.485523 1.152495 14.734820 31.537426 78.923855 51.254110 0.000000 0.000000 0.000000 
-0.253818 0.925322 0.472099 -172.726639 54.881313 -179.776764 6.634540 -4.392721 -17.988262 -24.227839 -15.238573 40.866636 34.752482 21.448031 -6.713331 0.000000 0.000000 0.000000 12.647569 -0.677446 4.525133 -15.502731 -16.243252 29.661020 22.056456 12.894668 3.969537 0.000000 0.000000 0.000000 4.791675 -4.705907 17.630394 -7.758548 0.022390 -25.958948 14.380927 9.746111 34.377828 7.766713 4.293580 -20.617214 0.000000 0.000000 0.000000 -2.251054 -4.241427 -32.867675 -52.305419 39.039937 -30.212970 -80.519929 -10.144311 -8.611183 0.000000 0.000000 0.000000 2.798317 -16.306226 2.348652 69.896782 4.014877 19.429789 6.253398 85.188124 34.991553 0.000000 0.000000 0.000000 
